<?xml version="1.0" encoding="UTF-8" standalone="no"?>
<svg
   xmlns="http://www.w3.org/2000/svg"
   version="1.1"
   fill="none"
   viewBox="0 0 16 16.592592"
   height="16.592592"
   width="16">
  <g transform="translate(-1,1.0370366)">
    <path
       d="m 3.8148148,3.6296296 c 0.912347,0 1.6675556,-0.6777037 1.794074,-1.5555555 H 15.740741 C 15.884125,2.0740741 16,1.9581852 16,1.8148148 16,1.6714444 15.884125,1.5555556 15.740741,1.5555556 H 5.6088888 C 5.4823704,0.6777037 4.7271618,0 3.8148148,0 2.8140741,0 2,0.81433334 2,1.8148148 2,2.8152827 2.8140741,3.6296296 3.8148148,3.6296296 Z m 0,-3.11111108 c 0.7147778,0 1.2962964,0.58151858 1.2962964,1.29629628 0,0.7147778 -0.5815186,1.2962964 -1.2962964,1.2962964 -0.7147778,0 -1.2962963,-0.5815186 -1.2962963,-1.2962964 0,-0.7147778 0.5815185,-1.29629628 1.2962963,-1.29629628 z"
       fill="#000000"
       id="path2"
       style="stroke-width:0.0272905" />
    <path
       d="m 14.185185,10.888889 c -0.912346,0 -1.667555,0.677704 -1.794074,1.555555 H 2.2592593 C 2.1161482,12.444444 2,12.560347 2,12.703704 c 0,0.143384 0.1161482,0.259259 0.2592593,0.259259 H 12.391111 c 0.126518,0.877852 0.881727,1.555556 1.794074,1.555556 1.000468,0 1.814815,-0.814348 1.814815,-1.814815 0,-1.000468 -0.814347,-1.814815 -1.814815,-1.814815 z m 0,3.111111 c -0.714764,0 -1.296296,-0.581532 -1.296296,-1.296296 0,-0.714765 0.581532,-1.296297 1.296296,-1.296297 0.714764,0 1.296296,0.581532 1.296296,1.296297 C 15.481481,13.418468 14.899949,14 14.185185,14 Z"
       fill="#000000"
       id="path4"
       style="stroke-width:0.0272905" />
    <path
       d="M 15.740741,7 H 10.910222 C 10.807556,6.0661481 10.014495,5.3371111 9.053653,5.3371111 8.0928655,5.3371111 7.2997778,6.0663937 7.1971112,7 H 2.2592593 C 2.1161482,7 2,7.1158752 2,7.2592593 2,7.402616 2.1161482,7.5185185 2.2592593,7.5185185 H 7.2134308 C 7.363037,8.4 8.1301988,9.0740738 9.053653,9.0740738 c 0.9235088,0 1.690371,-0.6740738 1.839976,-1.5555553 h 4.847112 C 15.884125,7.5185185 16,7.402616 16,7.2592593 16,7.1158752 15.884125,7 15.740741,7 Z M 9.053653,8.5555556 c -0.7443196,0 -1.3499493,-0.6056297 -1.3499493,-1.3499766 0,-0.7443197 0.6056297,-1.3499494 1.3499493,-1.3499494 0.744347,0 1.349977,0.6056297 1.349977,1.3499494 0,0.7443469 -0.60563,1.3499766 -1.349977,1.3499766 z"
       fill="#000000"
       id="path6"
       style="stroke-width:0.0272905" />
  </g>
</svg>
