<?xml version="1.0" encoding="UTF-8" standalone="no"?>
<svg
   xmlns="http://www.w3.org/2000/svg"
   version="1.1"
   fill="none"
   viewBox="0 0 16 16"
   height="16"
   width="16">
  <g transform="matrix(0.02734374,0,0,0.02734374,1.8202863,0.99997801)">
    <path
       d="M 451.616,149.553 425.966,79.078 C 417.48,55.762 391.606,43.695 368.291,52.184 L 321.13,69.35 c 0.076,-0.461 0.155,-0.922 0.221,-1.387 3.093,-21.747 -6.014,-42.742 -24.356,-56.16 C 279.653,-0.883994 257.46,-3.51799 237.632,4.75401 217.802,13.027 204.062,30.651 200.888,51.826 L 194.15,95.283 159.308,64.484 c -16.099,-14.231 -37.953,-18.903 -58.46,-12.491 -45.151,14.11 -57.506,71.958 -22.495,103.38 0.629,0.564 1.271,1.108 1.919,1.644 L 30.01,175.311 C 6.64301,183.816 -5.39099,209.613 3.11701,232.985 L 28.768,303.46 60.71,291.906 v 175.096 c 0,24.812 19.986,44.999 44.799,44.999 4.39,0 290.694,0 299.992,0 24.812,0 44.999,-20.186 44.999,-44.999 V 240.008 c -9.638,0 -247.401,0 -247.401,0 z M 378.551,80.374 c 7.77,-2.828 16.397,1.193 19.224,8.965 l 15.392,42.285 -140.95,51.302 -20.52,-56.38 z M 230.545,56.346 c 1.613,-10.774 8.581,-19.71 18.635,-23.905 9.962,-4.156 21.226,-2.919 30.102,3.574 20.154,14.744 15.322,42.987 -7.663,51.356 -3.853,1.402 -28.97,10.545 -30.184,10.986 l -18.445,6.713 z m -7.04,80.46 20.52,56.379 c -9.859,3.589 -18.331,6.672 -28.19,10.261 l -20.52,-56.38 z M 109.795,80.624 c 10.269,-3.208 21.376,-0.974 29.644,6.334 l 38.88,34.37 c -11.28,4.106 -37.952,13.814 -48.77,17.75 -10.89,3.961 -22.537,1.706 -31.16,-6.034 C 80.347,116.852 87.224,87.678 109.795,80.624 Z M 46.696,265.009 31.305,222.724 c -2.836,-7.787 1.173,-16.39 8.965,-19.227 l 126.855,-46.171 20.52,56.379 z m 253.806,4.998 h 120.197 v 196.995 c 0,8.271 -6.929,15 -15.2,15 H 300.502 Z m -59.998,0 h 30.199 v 211.994 h -30.199 z m -29.8,0 V 482.001 H 105.507 c -8.271,0 -15,-6.729 -15,-15 V 280.987 l 30.166,-10.98 z"
       fill="#ffffff" />
  </g>
</svg>
