<?xml version="1.0" encoding="UTF-8" standalone="no"?>
<svg xmlns="http://www.w3.org/2000/svg" width="16" height="16" viewBox="0 0 16 16" version="1.1" style="fill:none">
    <path d="M 14.963364,6.3611033 C 14.871199,6.0776242 14.619748,5.8769395 14.323446,5.8501177 L 10.282081,5.483214 8.6849046,1.7438972 C 8.5669869,1.4691743 8.2986584,1.2918643 8.0000012,1.2918643 c -0.2986299,0 -0.5670679,0.17731 -0.6842459,0.4520329 L 5.718579,5.483214 1.6765638,5.8501177 C 1.3802628,5.8774597 1.1293592,6.0781722 1.0366454,6.3611033 0.9444657,6.6445825 1.0295954,6.9555412 1.2536897,7.1520616 L 4.3086625,9.8308267 3.4078989,13.798082 c -0.065904,0.291726 0.047318,0.593342 0.2893558,0.768301 0.1300931,0.09455 0.2829424,0.141753 0.4363396,0.141753 0.1318079,0 0.2637256,-0.03504 0.3815337,-0.105535 l 3.4848732,-2.083696 3.4842698,2.083696 c 0.255589,0.15274 0.576986,0.138767 0.818492,-0.03622 0.242055,-0.174959 0.35526,-0.476575 0.28937,-0.768301 L 11.691367,9.8308247 14.746323,7.1520602 c 0.224,-0.1965203 0.309232,-0.5068216 0.217041,-0.7909582 z"
            style="fill:#6E6E6E;stroke-width:0.02739723"/>
</svg>
