<?xml version="1.0" encoding="UTF-8" standalone="no"?>
<svg
   xmlns="http://www.w3.org/2000/svg"
   version="1.1"
   fill="none"
   viewBox="0 0 16 16"
   height="16"
   width="16">
  <path
     style="stroke-width:0.034526"
     id="path2"
     fill="#ffffff"
     d="m 14.787153,13.957559 -3.45125,-3.589458 c 0.887387,-1.0548715 1.373581,-2.3821187 1.373581,-3.7638133 0,-3.2282572 -2.626493,-5.8547407 -5.8547403,-5.8547407 -3.2282572,0 -5.85474374,2.6264835 -5.85474374,5.8547407 0,3.2282469 2.62648654,5.8547403 5.85474374,5.8547403 1.2119305,0 2.366824,-0.365561 3.3542323,-1.059463 l 3.477455,3.616698 c 0.145354,0.150948 0.340875,0.23419 0.550379,0.23419 0.198282,0 0.38638,-0.07561 0.529214,-0.21306 0.303414,-0.291986 0.313081,-0.776144 0.02113,-1.079834 z M 6.8547437,2.2768687 c 2.3861931,0 4.3274153,1.9412259 4.3274153,4.327419 0,2.3861931 -1.9412222,4.3274153 -4.3274153,4.3274153 -2.3861931,0 -4.3274224,-1.9412222 -4.3274224,-4.3274153 0,-2.3861931 1.9412293,-4.327419 4.3274224,-4.327419 z" />
</svg>
