<?xml version="1.0" encoding="UTF-8" standalone="no"?>
<svg
   xmlns="http://www.w3.org/2000/svg"
   version="1.1"
   fill="none"
   viewBox="0 0 16 16"
   height="16"
   width="16">
  <path
     style="stroke-width:0.0300752"
     id="path2"
     fill="#000000"
     d="m 6.032,4.7374737 c -0.062556,0.067639 -0.1032782,0.1112481 -0.1338346,0.144 0.056722,-0.061113 0.1338346,-0.144 0.1338346,-0.144 z" />
  <path
     style="stroke-width:0.0300752"
     id="path4"
     fill="#000000"
     d="m 8.8094737,5.2516391 c 0.208,0.256 0.3112481,0.5578346 0.3112481,0.9054737 0,0.2487218 -0.071278,0.4879699 -0.2130827,0.7192481 C 8.8298045,7.0072782 8.7273083,7.1338346 8.5992782,7.2545263 L 8.1731128,7.6756391 C 7.7643609,8.0770827 7.5003609,8.4326917 7.3796391,8.744 7.2588872,9.0545263 7.1985263,9.464 7.1985263,9.9716391 h 0.9483609 c 0,-0.4472782 0.050917,-0.7854737 0.152,-1.0145564 C 8.3999699,8.7279699 8.6210827,8.4487218 8.9621654,8.1178045 9.4312481,7.6632481 9.7425263,7.3185263 9.8966917,7.0843308 10.050887,6.8501353 10.128692,6.5446917 10.128692,6.1679699 c 0,-0.6210827 -0.2101657,-1.1316391 -0.6312484,-1.5316391 -0.4210827,-0.4 -0.9810827,-0.5992481 -1.6807519,-0.5992481 -0.7563609,0 -1.3512481,0.2334135 -1.7847218,0.7003609 C 5.5984962,5.2043609 5.3817744,5.8210827 5.3817744,6.5883308 h 0.9483609 c 0.017444,-0.4618346 0.090947,-0.8152481 0.2181955,-1.0603609 0.2269173,-0.44 0.6371128,-0.6603609 1.2305564,-0.6603609 0.4792782,3.01e-5 0.8232782,0.1280301 1.0305865,0.3840301 z" />
  <path
     style="stroke-width:0.0300752"
     id="path6"
     fill="#000000"
     d="M 16,8 C 16,3.5818045 12.418165,0 8,0 3.5818045,0 0,3.5818045 0,8 c 0,4.418165 3.5818045,8 8,8 4.418165,0 8,-3.581835 8,-8 z M 0.72726917,8 C 0.72726917,3.9832782 3.9832782,0.72726917 8,0.72726917 c 4.016722,0 7.272722,3.25600903 7.272722,7.27273083 0,4.016722 -3.256,7.272722 -7.272722,7.272722 -4.0167218,0 -7.27273083,-3.256 -7.27273083,-7.272722 z" />
  <path
     style="stroke-width:0.0300752"
     id="path8"
     fill="#000000"
     d="m 8.2371128,10.855278 h -1.060391 v 1.107609 h 1.060391 z" />
</svg>
